<svg xmlns="http://www.w3.org/2000/svg" viewBox="0 0 66 66" id="pioneer">
  <path d="M60.18,53.55a12.09,12.09,0,0,0-2.53-7,12.23,12.23,0,0,0-4.79-3.71l-1.25-.51h0L43,38.53l-1.69-2.47V33a13.77,13.77,0,0,0,2.63-4.3,20,20,0,0,0,.86-3.38l.28,0a1.87,1.87,0,0,0,.72-.15,2.7,2.7,0,0,0,1.42-2.07,8.56,8.56,0,0,1,.9-2.69l.14-.3a2.93,2.93,0,0,0,.23-.81,3.1,3.1,0,0,0-.2-1.8,2.59,2.59,0,0,0-1.44-1.41,2.15,2.15,0,0,0-.5-.12c.08-.44.16-.88.23-1.32.68-4.14-.61-6-2.24-8.42l-.72-1.08C41.35,1.75,36,.34,28.92,1.29c-3.63.49-5,2.63-5.3,4.27A3.9,3.9,0,0,0,21.3,6.69c-2.43,2.42-2,7.65-1.93,8.68l.09.63a4,4,0,0,0-.47.11,2.6,2.6,0,0,0-1.44,1.4,3.11,3.11,0,0,0-.2,1.8,2.68,2.68,0,0,0,.25.84l.16.34a8.12,8.12,0,0,1,.85,2.61A2.74,2.74,0,0,0,20,25.19a1.75,1.75,0,0,0,.73.15,2,2,0,0,0,.47-.06,20.55,20.55,0,0,0,.86,3.42A13.45,13.45,0,0,0,24.74,33v3l-1.93,2.59-8.45,3.75h0l-.93.37a12.64,12.64,0,0,0-5,4A12.77,12.77,0,0,0,5.8,53.9L5.42,64a1,1,0,0,0,1,1H59.58a1,1,0,0,0,1-1ZM22.8,41.12l.75,3.5a1.5,1.5,0,0,0,1.15,1.26l.33,0a1.5,1.5,0,0,0,1.3-.74A3.23,3.23,0,0,1,27.8,44a31.89,31.89,0,0,1,3.18,4,3.13,3.13,0,0,0-1,1.34,17.89,17.89,0,0,1-7.14-4.16s1.45,2.7,7.09,4.3a1,1,0,0,0,0,.14,29.22,29.22,0,0,1-12.13-5,21.85,21.85,0,0,0,12.05,5.27.17.17,0,0,0,0,.07c-.14.11-.28.22-.41.34C21.94,48.64,17.08,46.33,16,43.88Zm4-4.82s0,0,0,0V35l.47.4a9.18,9.18,0,0,0,11.59,0l.47-.4v1.1a1.3,1.3,0,0,0-.08.17,46.69,46.69,0,0,1-5.82,5.22l-.06.06-.08.09a1.09,1.09,0,0,0-.14.23s0,0,0,.06l-.17.45-.21-.5,0,0a.9.9,0,0,0-.17-.26l-.05-.06,0,0A46.09,46.09,0,0,1,26.76,36.3Zm13.67,7.34a7,7,0,0,0-2.33-1.49l-.2-.08a11.36,11.36,0,0,0-1.51-.48,42,42,0,0,0,3.85-3.49l1,1.45Zm-9.33-.39c1.2,2.84,1.24,2.84,1.86,2.84a1,1,0,0,0,.94-.65l.77-2.13c.35,0,.75.11,1.18.2A33.13,33.13,0,0,0,33,47.29h0a32.92,32.92,0,0,0-3-3.95C30.38,43.29,30.77,43.26,31.1,43.25Zm1.76,6a1.17,1.17,0,1,1-1.16,1.17A1.17,1.17,0,0,1,32.86,49.28Zm-3.8,5.86.14-.43a9.6,9.6,0,0,1,1.05-2.48,3.14,3.14,0,0,0,1.44,1.15c-.09.27-.18.52-.28.75a5.44,5.44,0,0,1-1.93,2.5,3.41,3.41,0,0,1-1.23.49A12.48,12.48,0,0,0,29.06,55.14Zm6.47-3a.49.49,0,0,1,.14.11,9.25,9.25,0,0,1,1.56,2.25l.24.43a11.49,11.49,0,0,0,1.2,1.77,3.23,3.23,0,0,1-1.32-.23,5.55,5.55,0,0,1-2.38-2c-.23-.35-.46-.74-.68-1.16A3.19,3.19,0,0,0,35.53,52.14Zm.83-1.89c-.12-.08-.25-.14-.37-.21s0-.13,0-.2a21.84,21.84,0,0,0,12.78-5.33,29.55,29.55,0,0,1-12.83,5.14l0-.07c6.21-1.58,7.78-4.49,7.78-4.49-2.18,2.33-5.58,3.68-7.81,4.38a3.21,3.21,0,0,0-1-1.43,31.68,31.68,0,0,1,3-3.79,3.74,3.74,0,0,1,1.54,1.34,1.49,1.49,0,0,0,1.29.74,1.24,1.24,0,0,0,.33,0A1.48,1.48,0,0,0,42.19,45l.79-4,7,2.82C48.89,46.36,43.93,48.69,36.36,50.25ZM46.1,18a.62.62,0,0,1,.32.35,1.2,1.2,0,0,1,.06.67,1.14,1.14,0,0,1-.08.3l-.12.26a10.35,10.35,0,0,0-1.08,3.27,1.54,1.54,0,0,1-.07.27.93.93,0,0,1-.05-.1l0,0c.06-.55.1-1.11.13-1.7.22-.91.48-2,.73-3.28A.54.54,0,0,1,46.1,18ZM22.71,8.11a2,2,0,0,1,1.72-.57,1,1,0,0,0,1.1-1h0v0c0-.27,0-2.72,3.65-3.21,6.19-.84,11,.28,12.72,3l.74,1.1c1.59,2.34,2.46,3.63,1.91,7-.5,3.1-1.25,6.25-1.62,7.73H42.7c.47-3.68.77-7.69-.42-9.88C40.53,8.93,37.9,9,36,9.1h-.46c-.54,0-1.16.1-1.88.19-2,.27-4.79.64-7.46-.49a1,1,0,0,0-1.08.2,9,9,0,0,0-2.36,6.87l.47,6.19h-.31a42.14,42.14,0,0,1-1.55-6.91C21.1,12.58,21.41,9.4,22.71,8.11Zm-1.9,15.22a1.49,1.49,0,0,1-.22-.51,10.47,10.47,0,0,0-1-3.2l-.16-.34a1.24,1.24,0,0,1-.08-.29,1.22,1.22,0,0,1,.06-.67.59.59,0,0,1,.31-.33s.07,0,.11,0c.32,1.55.73,3.07,1.06,4.2a1.09,1.09,0,0,0,0,.36l0,.12c0,.08,0,.2.06.31l0,.26A1,1,0,0,1,20.81,23.33Zm2.26.74H24.3a1,1,0,0,0,.73-.32,1,1,0,0,0,.26-.76l-.55-7.27a7.11,7.11,0,0,1,1.36-4.8,16.6,16.6,0,0,0,7.82.37,16.64,16.64,0,0,1,1.67-.18h.47c1.84-.07,3.3-.12,4.46,2,1.06,2,.42,7,.18,8.85-.07.5-.11.86-.12,1a1.06,1.06,0,0,0,.27.74,1,1,0,0,0,.73.31h1.34a20.37,20.37,0,0,1-.9,4,14.4,14.4,0,0,1-4.49,5.8,7.18,7.18,0,0,1-9,0A14.35,14.35,0,0,1,24,28,19.6,19.6,0,0,1,23.07,24.07Zm2.61,14a37.28,37.28,0,0,0,3.54,3.32,10,10,0,0,0-1.4.37.49.49,0,0,0-.19.07,6.09,6.09,0,0,0-2.33,1.38l-.77-3.59ZM7.46,63l.34-9a10.7,10.7,0,0,1,6.34-9.35c1.62,3.76,8.08,6,14,7.34a16.29,16.29,0,0,0-.81,2.13l-.13.42a6.14,6.14,0,0,1-1.42,2.63,1,1,0,0,0-.31.9,1,1,0,0,0,.58.75,4.35,4.35,0,0,0,1.75.36,5.19,5.19,0,0,0,2.81-.85,7.33,7.33,0,0,0,2.54-3.1l.21.33a7.39,7.39,0,0,0,3.29,2.79,5.37,5.37,0,0,0,2,.38,4.54,4.54,0,0,0,2.63-.8,1,1,0,0,0-.06-1.67,6.14,6.14,0,0,1-1.92-2.3L39,53.52c-.3-.53-.61-1.07-1-1.58,5.87-1.32,12.23-3.59,13.83-7.32l.25.1a10.16,10.16,0,0,1,4,3.1,10.06,10.06,0,0,1,2.11,5.8L58.54,63Z"></path>
</svg>
