<svg xmlns="http://www.w3.org/2000/svg" viewBox="0 0 64 64" id="scout">
  <path fill="#168fd6" d="M50,62H14a1,1,0,0,1-1-1V51c.03164-8.14747,7.07041-13.76352,15-12.99981A15.92068,15.92068,0,0,0,32,39a33.34581,33.34581,0,0,0,4-1h2A13.01442,13.01442,0,0,1,51,51V61A1,1,0,0,1,50,62Z"></path>
  <path fill="#044388" d="M26.25 21.97a1.02013 1.02013 0 0 0-.96-.56 18.99714 18.99714 0 0 0-7.07 2.06c-7.06261 3.59147-3.9544 12.69426-2.75976 14.9701A1.01438 1.01438 0 0 0 16.42 39C27.40145 37.88039 30.35643 31.01859 26.25 21.97zM49.21 26.71c-1.86808-3.81426-8.88851-5.3186-10.5001-5.2998A1.0196 1.0196 0 0 0 37.75 21.97 18.59037 18.59037 0 0 0 36 29.25a8.1347 8.1347 0 0 0 2.57006 6.29C41.86 38.57 47.31 38.98 47.58 39a1.01474 1.01474 0 0 0 .96-.56C48.68 38.16 51.93 31.42 49.21 26.71z"></path>
  <path d="M38.71,21.41a1.02013,1.02013,0,0,0-.96.56A18.59037,18.59037,0,0,0,36,29.25a8.135,8.135,0,0,0,2.57,6.29A10.39125,10.39125,0,0,0,42,26.9a4.99927,4.99927,0,0,0,3.78-3.43A18.99714,18.99714,0,0,0,38.71,21.41Zm-13.42,0a18.99714,18.99714,0,0,0-7.07,2.06A4.99927,4.99927,0,0,0,22,26.9a10.39119,10.39119,0,0,0,3.43,8.64c4.82361-3.93265,1.387-12.70782.81981-13.57A1.01966,1.01966,0,0,0,25.29,21.41Z" opacity=".1"></path>
  <path fill="#ccdde7" d="M45.92,19.13A4.99576,4.99576,0,0,0,41,15H23c-6.00685.09952-6.80322,8.63333-1,9.9-.48727,14.73766,20.49113,14.72909,20,0A5.02142,5.02142,0,0,0,45.92,19.13Z"></path>
  <path fill="#ccdde7" d="M32,44a4.00458,4.00458,0,0,1-4-4V32a1,1,0,0,1,1-1h6a1,1,0,0,1,1,1v8A4.00458,4.00458,0,0,1,32,44Z"></path>
  <path d="M18.08,18.55v2.33a4.975,4.975,0,0,0,1.8,3.02,9.45931,9.45931,0,0,0,7.05-4.02c2.69,4.56,8.78,6.33,11.18,6.1A13.36331,13.36331,0,0,0,42,25.39V24.9a5.00346,5.00346,0,0,0,3.92-4.02C47.87825,1.4605,19.06536-1.0202,18.08,18.55Z" opacity=".1"></path>
  <path fill="#044388" d="M38.10986,23.00049c-2.40176.22681-8.49207-1.54146-11.17968-6.09668A10.27462,10.27462,0,0,1,23.87646,19.75a9.504,9.504,0,0,1-4.81494,1.2002,1.00052,1.00052,0,0,1-.979-1V15.56885c.60266-18.04719,27.23264-18.05868,27.835.00015l0,4.3812a.99982.99982,0,0,1-.45019.83544A13.52827,13.52827,0,0,1,38.10986,23.00049Z"></path>
  <path fill="#ccdde7" d="M38.27,52.51,36.95,53.83a.99588.99588,0,0,1-1.41,0c-2.80517-2.80366-6.96175-6.94817-9.81-9.8a1.008,1.008,0,0,1,0-1.41995l1.32-1.32a.99587.99587,0,0,1,1.41,0c1.69774,1.703,5.55057,5.54677,7.20995,7.21L38.27,51.1A.996.996,0,0,1,38.27,52.51Z"></path>
  <rect width="3.864" height="3.864" x="31.005" y="46.568" opacity=".1" transform="rotate(-45 32.938 48.5)"></rect>
  <rect width="3.866" height="15.866" x="30.067" y="39.676" fill="#ccdde7" rx="1" transform="rotate(45 32 47.61)"></rect>
  <path fill="#044388" d="M46 52H43a1.00019 1.00019 0 0 1 .00006-2H46A1.00019 1.00019 0 0 1 46 52zM21 52H18a1.00019 1.00019 0 0 1 .00006-2H21A1.00019 1.00019 0 0 1 21 52z"></path>
  <path d="M28 35.16A9.88043 9.88043 0 0 0 32 36H28zM36 35.16V36H32A9.88043 9.88043 0 0 0 36 35.16zM40 39H36a34.86487 34.86487 0 0 0-4 3.58594A34.86487 34.86487 0 0 0 28 39H24a1 1 0 0 0-1 1 13.60364 13.60364 0 0 0 2.168 6.55469A1.006 1.006 0 0 0 26.707 46.707c2.49072-2.49072 4.88623-1.78564 4.98633-1.75537a1.19477 1.19477 0 0 0 .61328 0c.1001-.03027 2.49561-.73535 4.98633 1.75537a1.006 1.006 0 0 0 1.53906-.15234A13.60364 13.60364 0 0 0 41 40 1 1 0 0 0 40 39z" opacity=".1"></path>
  <path fill="#56b5ef" d="M40,38H36a34.86487,34.86487,0,0,0-4,3.58594A34.86487,34.86487,0,0,0,28,38H24a1,1,0,0,0-1,1,13.60364,13.60364,0,0,0,2.168,6.55469A1.006,1.006,0,0,0,26.707,45.707c2.49072-2.49072,4.88623-1.78564,4.98633-1.75537a1.19477,1.19477,0,0,0,.61328,0c.1001-.03027,2.49561-.73535,4.98633,1.75537a1.006,1.006,0,0,0,1.53906-.15234A13.60364,13.60364,0,0,0,41,39,1,1,0,0,0,40,38Z"></path>
</svg>
