<svg xmlns="http://www.w3.org/2000/svg" id="scout-boy" viewBox="0 0 64 64">
  <path d="M53 54c-.55 0-1 .45-1 1v6c0 .55.45 1 1 1s1-.45 1-1v-6c0-.55-.45-1-1-1ZM45 37h-8v-2.35c2.71-1.57 4.62-4.38 4.95-7.65h.05c1.39 0 2.55-.96 2.89-2.24 3.69-.8 9.11-2.53 9.11-5.76 0-2.77-4.03-4.75-9.63-5.88l-.81-3.52s0-.01 0-.02l-.86-3.71c-.53-2.28-2.53-3.87-4.87-3.87h-11.64c-2.34 0-4.34 1.59-4.88 3.87l-.85 3.71s0 .01 0 .02l-.81 3.52c-5.6 1.13-9.63 3.1-9.63 5.88 0 3.23 5.42 4.96 9.11 5.76.34 1.29 1.5 2.24 2.89 2.24h.05c.33 3.27 2.24 6.07 4.95 7.65v2.35h-8c-4.96 0-9 4.04-9 9v15c0 .55.45 1 1 1s1-.45 1-1v-15c0-3.86 3.14-7 7-7h4.56c-.34.59-.56 1.27-.56 2v7.59c0 1.33 1.08 2.41 2.41 2.41.63 0 1.26-.26 1.71-.71l.84-.84.98 1.72-1.93 9.63c-.11.54.24 1.07.78 1.18.54.11 1.07-.24 1.18-.78l1.84-9.2h2.36l1.84 9.2c.09.48.51.8.98.8.06 0 .13 0 .2-.02.54-.11.89-.63.78-1.18l-1.93-9.63.98-1.72.84.84c.45.45 1.07.71 1.71.71 1.33 0 2.41-1.08 2.41-2.41v-7.59c0-.73-.21-1.41-.56-2h4.56c3.86 0 7 3.14 7 7v1c0 .55.45 1 1 1s1-.45 1-1v-1c0-4.96-4.04-9-9-9Zm-2-13c0 .55-.45 1-1 1v-4c.55 0 1 .45 1 1v2ZM26.18 4h11.64c1.38 0 2.61.98 2.93 2.32l.53 2.3c-5.78-.8-12.77-.8-18.55 0l.53-2.3c.31-1.35 1.54-2.33 2.93-2.33Zm-3.94 6.71c5.98-.92 13.53-.92 19.52 0l.47 2.03c-3.17-.49-6.71-.74-10.23-.74s-7.05.25-10.23.74l.47-2.03Zm-10.24 8.29c0-2.04 7.79-5 20-5s20 2.96 20 5c0 1.03-2.2 2.57-7 3.68v-.68c0-1.65-1.35-3-3-3v-1c0-.46-.31-.86-.75-.97-5.23-1.33-13.27-1.33-18.49 0-.44.11-.75.51-.75.97v1c-1.65 0-3 1.35-3 3v.68c-4.8-1.11-7-2.65-7-3.68Zm9 5v-2c0-.55.45-1 1-1v4c-.55 0-1-.45-1-1Zm3 2v-7.21c4.65-1.02 11.35-1.02 16 0v7.21c0 4.41-3.59 8-8 8s-8-3.59-8-8Zm8 10c1.04 0 2.05-.16 3-.46v4.05l-3 3-3-3v-4.05c.95.3 1.96.46 3 .46Zm-6.29 12.88c-.24.24-.71.04-.71-.29v-7.59c0-1.1.9-2 2-2v1c0 .27.11.52.29.71l3.29 3.29-4.88 4.88Zm7.71 1.12h-2.84l-1.15-2.01 2.57-2.57 2.57 2.57-1.15 2.01Zm5.58-9v7.59c0 .34-.47.53-.71.29l-4.88-4.88 3.29-3.29c.19-.19.29-.44.29-.71v-1c1.1 0 2 .9 2 2Z"></path>
  <path d="M48 53h-8c-1.1 0-2 .9-2 2v2c0 1.1.9 2 2 2h8c1.1 0 2-.9 2-2v-2c0-1.1-.9-2-2-2Zm-8 4v-2h8v2s-8 0-8 0ZM24 53h-8c-1.1 0-2 .9-2 2v2c0 1.1.9 2 2 2h8c1.1 0 2-.9 2-2v-2c0-1.1-.9-2-2-2Zm-8 4v-2h8v2s-8 0-8 0Z"></path>
  <circle cx="53" cy="51" r="1"></circle>
</svg>
