<svg xmlns="http://www.w3.org/2000/svg" id="security-guard" viewBox="0 0 64 64">
  <path d="M49.1 44.42c-.39-.39-1.03-.38-1.41.01-.39.39-.38 1.03.01 1.41.61.6 1 1.33 1.18 2.15h-1.88c-1.1 0-2 .9-2 2 0 2.41 1.72 4.43 4 4.9v6.1c0 .55.45 1 1 1s1-.45 1-1v-12c0-1.77-.66-3.36-1.9-4.57Zm-2.1 5.57h2v2.83c-1.16-.41-2-1.53-2-2.83ZM41.34 41.06l-1.53-.51c-.13-.51-.32-1.02-.59-1.51l-.23-.34v-2.98c3.13-2.25 5-5.84 5-9.72v-.1c2.28-.46 4-2.48 4-4.9v-1c0-1.65-1.35-3-3-3v-8c0-3.86-3.14-7-7-7h-12c-3.86 0-7 3.14-7 7v8c-1.65 0-3 1.35-3 3v1c0 2.41 1.72 4.43 4 4.9v.1c0 3.21 1.25 6.22 3.51 8.49.45.45.95.85 1.49 1.24v2.98l-.27.42c-.25.46-.43.95-.55 1.43l-6.39 2.13c-2.95.99-4.78 3.41-4.78 6.32v12c0 .55.45 1 1 1s1-.45 1-1v-6.1c2.28-.46 4-2.48 4-4.9 0-1.1-.9-2-2-2h-1.88c.35-1.58 1.52-2.83 3.29-3.42l5.64-1.87c.11.85.4 1.66.9 2.38.12.17.25.34.39.5l2.66 3.07c.19.22.47.35.76.35h.02s0 0 .01 0l.2 1.01-1.97 10.81c-.1.54.26 1.06.81 1.16.55.11 1.06-.26 1.16-.8l1.85-10.18h2.33l1.85 10.18c.09.48.51.82.98.82.06 0 .12 0 .18-.02.54-.1.9-.62.81-1.16l-1.97-10.81.2-1.01s0 0 .01 0h.02c.29 0 .57-.13.76-.35l2.65-3.07c.14-.16.27-.33.39-.5.5-.71.79-1.53.89-2.38l.76.25c.1.03.21.05.32.05.42 0 .81-.26.95-.68.17-.52-.11-1.09-.63-1.27Zm-26.34 11.77v-2.83h2c0 1.3-.84 2.42-2 2.83Zm17-14.83c1.75 0 3.45-.37 5-1.09v1.62l-1.25 1.04-3.75 3.12-3.75-3.12-1.25-1.04v-1.62c1.55.71 3.25 1.09 5 1.09Zm-10.64-19.39c-.23-.19-.36-.47-.36-.77v-3.84h22v3.84c0 .3-.13.58-.36.77-.13.11-.41.29-.8.22-1.42-.24-2.38-.72-3.39-1.23-1.58-.79-3.21-1.61-6.45-1.61s-4.87.82-6.45 1.61c-1.01.51-1.97.98-3.39 1.23-.39.07-.67-.11-.8-.22Zm8.68-9.34 1.96-1.12 1.97 1.12c-.22 1.69-1.4 2.41-1.96 2.66-.55-.25-1.75-.98-1.97-2.66Zm15.96 10.73v1c0 1.3-.84 2.42-2 2.83v-3.76c.33-.3.59-.66.76-1.07h.24c.55 0 1 .45 1 1ZM26 4h12c2.76 0 5 2.24 5 5v3h-8.03c.59-.82 1.03-1.9 1.03-3.29 0-.36-.19-.69-.5-.87l-3-1.71c-.31-.18-.68-.18-.99 0l-3 1.71c-.31.18-.5.51-.5.87 0 1.39.43 2.47 1.03 3.29h-8.03v-3c0-2.76 2.24-5 5-5Zm-8 17v-1c0-.55.45-1 1-1h.24c.17.4.42.77.76 1.07v3.76c-1.16-.41-2-1.52-2-2.83Zm4 5v-5.15c.17 0 .33-.01.5-.04 1.71-.29 2.85-.86 3.95-1.41 1.43-.72 2.79-1.39 5.55-1.39s4.12.68 5.55 1.39c1.1.55 2.23 1.12 3.95 1.41.17.03.33.03.5.03v5.17c0 3.39-1.7 6.53-4.55 8.38-3.22 2.12-7.68 2.12-10.9 0-.6-.39-1.15-.83-1.62-1.31-1.89-1.89-2.93-4.4-2.93-7.07Zm4.85 18.28c-.09-.11-.18-.22-.26-.34-.49-.71-.67-1.62-.56-2.5 0-.02 0-.05 0-.07.04-.29.12-.57.22-.85l4.33 3.61-1.87 2.31-1.88-2.17Zm3.97 4.72-.32-1.57 1.5-1.84 1.5 1.84-.32 1.57h-2.36Zm6.59-5.06c-.08.12-.17.23-.26.33l-1.87 2.16-1.87-2.31 4.32-3.6c.45 1.17.34 2.47-.32 3.41Z"></path>
  <path d="M27 24v-2c0-.55-.45-1-1-1s-1 .45-1 1v2c0 .55.45 1 1 1s1-.45 1-1ZM38 25c.55 0 1-.45 1-1v-2c0-.55-.45-1-1-1s-1 .45-1 1v2c0 .55.45 1 1 1ZM32 33c1.78 0 3.36-1.07 3.94-2.66.19-.52-.08-1.09-.6-1.28-.52-.19-1.09.08-1.28.6-.29.8-1.12 1.34-2.06 1.34s-1.77-.54-2.06-1.34c-.19-.52-.76-.79-1.28-.6-.52.19-.79.76-.6 1.28.58 1.59 2.16 2.66 3.94 2.66Z"></path>
  <circle cx="45" cy="43" r="1"></circle>
</svg>
