<svg xmlns="http://www.w3.org/2000/svg"
shape-rendering="geometricPrecision"
width="4000" height="4000" viewBox="0 0 678 678">
  <metadata>null</metadata>

<path d="
M 29.914 570.161
C 31.09 568.851 32.83 567.33 33.581 565.727
C 34.173 564.462 33.923 562.844 33.941 561.491
C 33.984 558.323 34.045 555.159 34.052 551.99
C 34.07 543.66 34.143 535.331 34.172 527.001
C 34.184 523.561 35.048 518.839 33.926 515.563
C 33.252 513.593 31.082 511.848 29.871 510.165
C 34.188 510.538 38.67 510.242 43.013 510.281
C 44.342 510.294 46.836 509.818 47.941 510.556
C 47.085 512.45 44.956 513.532 44.235 515.505
C 43.469 517.6 44.084 520.313 44.088 522.497
C 44.095 527.602 43.78 532.791 44.102 537.878
C 50.47 537.719 56.846 537.978 63.213 537.738
C 62.314 530.771 63.984 523.541 63.23 516.555
C 62.964 514.091 59.769 512.556 59.641 510.327
C 63.594 510.29 67.555 510.275 71.512 510.275
C 73.298 510.275 75.33 509.962 77.07 510.334
C 76.306 512.466 73.835 513.627 73.387 515.845
C 72.992 517.804 73.238 520.012 73.231 522.003
C 73.219 526.003 73.239 530.003 73.249 534.003
C 73.276 543.946 72.59 554.102 73.217 564.021
C 73.34 565.954 74.324 567.108 75.688 568.385
C 76.205 568.869 77.54 569.73 77.506 570.496
C 76.41 571.204 73.797 570.624 72.505 570.603
C 69.504 570.553 66.497 570.575 63.496 570.622
C 62.138 570.642 60.541 570.911 59.221 570.557
C 60.055 568.689 62.391 567.772 63.014 565.777
C 63.564 564.014 63.233 561.776 63.231 559.953
C 63.225 555.97 63.22 551.987 63.219 548.004
C 63.219 545.949 63.817 542.852 63.223 540.915
C 58.565 541.029 53.913 541.061 49.254 541.073
C 47.923 541.076 44.908 540.637 43.895 541.464
C 44.153 546.488 44.105 551.573 44.03 556.603
C 43.986 559.534 43.503 562.734 44.314 565.598
C 44.897 567.655 47.323 568.41 48.086 570.324
C 42.139 570.942 35.917 570.639 29.946 570.572
C 29.935 570.435 29.925 570.298 29.914 570.161 Z"
opacity="1" fill="rgb(16,27,68)" fill-rule="evenodd" />
<path d="
M 83.588 510.282
C 94.947 510.03 106.392 510.751 117.737 510.108
C 118.173 512.842 117.782 515.734 117.898 518.498
C 117.947 519.659 118.395 521.418 118.052 522.541
C 117.914 522.992 116.988 522.786 116.601 522.834
C 115.93 522.023 115.956 520.707 115.65 519.729
C 114.951 517.498 113.405 515.263 111.534 513.874
C 107.469 512.88 101.921 513.449 97.747 513.689
C 97.01 521.502 97.965 529.518 97.636 537.359
C 102.535 536.771 107.763 537.275 112.698 537.207
C 113.223 538.292 112.711 539.794 112.896 540.964
C 109.408 540.754 105.854 540.799 102.363 540.911
C 100.971 540.956 99.011 540.716 97.7 541.163
C 97.551 546.936 97.655 552.718 97.59 558.493
C 97.56 561.194 97.006 564.68 97.617 567.299
C 100.9 567.1 104.221 567.281 107.509 567.272
C 108.923 567.269 111.002 567.491 112.231 566.645
C 114.518 565.07 115.36 561.99 116.307 559.555
C 116.851 558.156 116.996 556.653 118.717 556.705
C 119.122 560.023 118.63 563.693 118.438 567.032
C 118.384 567.973 118.807 569.876 118.362 570.65
C 109.783 570.923 101.097 570.661 92.503 570.665
C 90.342 570.666 88.18 570.639 86.02 570.653
C 85.486 570.656 84.067 570.887 83.738 570.444
C 84.455 568.749 86.304 567.893 87.195 566.318
C 88.548 560.427 87.671 553.464 87.656 547.449
C 87.638 540.466 87.577 533.483 87.58 526.5
C 87.581 523.26 88.247 519.375 87.518 516.208
C 87.002 513.967 84.725 512.233 83.588 510.282 Z"
opacity="1" fill="rgb(15,25,67)" fill-rule="evenodd" />
<path d="
M 125.044 510.269
C 129.166 510.45 133.374 510.247 137.509 510.225
C 139.182 510.217 141.481 509.705 143.038 510.365
C 142.727 512.937 139.521 513.859 139.248 516.74
C 138.866 520.772 139.127 524.95 139.118 528.998
C 139.1 537.331 139.099 545.664 139.109 553.997
C 139.115 558.414 139.382 562.929 139.085 567.333
C 142.215 567.331 145.35 567.396 148.482 567.4
C 150.214 567.402 152.213 567.498 153.656 566.389
C 155.734 564.793 157.063 561.809 157.862 559.386
C 158.373 557.839 158.787 556.153 160.658 556.028
C 160.987 559.524 159.996 563.475 159.857 567.023
C 159.827 567.809 160.177 569.969 159.588 570.495
C 148.212 571.502 136.591 569.922 125.204 570.582
C 126.017 568.577 128.583 567.339 129.057 565.239
C 129.464 563.434 129.189 561.292 129.183 559.452
C 129.172 555.802 129.175 552.152 129.172 548.502
C 129.164 540.859 129.201 533.216 129.232 525.573
C 129.245 522.55 130.086 518.114 128.897 515.279
C 128.111 513.404 126.193 511.941 125.044 510.269 Z"
opacity="1" fill="rgb(16,26,66)" fill-rule="evenodd" />
<path d="
M 166.044 510.249
C 177.179 509.916 190.513 508.453 200.433 514.463
C 217.315 524.69 218.517 553.551 202.162 565.073
C 191.947 572.268 177.998 571.047 166.092 570.619
C 166.527 568.402 169.446 567.595 169.841 565.414
C 170.61 561.167 170.126 556.282 169.961 551.993
C 169.73 546.006 169.909 539.991 169.91 534
C 169.91 530.178 169.905 526.355 169.96 522.533
C 169.992 520.323 170.359 517.782 169.834 515.613
C 169.308 513.437 166.605 512.468 166.044 510.249 Z
M 180.438 513.423
C 179.756 514.707 180.083 516.624 180.098 518.045
C 180.129 521.028 180.11 524.013 180.106 526.996
C 180.092 536.497 180.163 545.998 180.156 555.499
C 180.154 558.331 180.154 561.162 180.152 563.993
C 180.151 565.129 179.863 566.643 180.262 567.704
C 185.688 567.403 190.943 567.739 195.26 563.821
C 198.263 561.096 200.008 557.396 201.198 553.579
C 202.011 550.968 202.473 548.245 202.716 545.523
C 203.581 535.812 202.763 522.883 194.322 516.433
C 190.443 513.469 185.146 513.205 180.438 513.423 Z"
opacity="1" fill="rgb(16,25,67)" fill-rule="evenodd" />
<path d="
M 275.042 263.734
C 273.495 263.217 272.205 261.481 270.971 260.398
C 268.444 258.18 265.822 256.178 262.947 254.423
C 251.319 247.328 238.386 242.51 224.576 243.192
C 201.825 244.314 181.155 261.649 180.283 285.202
C 180.057 291.284 181.451 297.509 183.584 303.173
C 185.185 307.426 187.299 312.153 190.316 315.598
C 192.263 318.696 195.016 321.365 197.596 323.929
C 201.733 328.695 207.723 332.25 213.091 335.43
C 215.003 336.563 217.493 338.565 219.714 338.939
C 218.417 330.414 219.574 323.36 222.615 315.348
C 224.664 310.46 228.095 307.32 231.326 303.324
C 247.419 288.941 274.428 294.543 287.579 310.077
C 290.863 313.956 293.599 318.064 295.748 322.681
C 296.426 324.139 297.075 325.655 297.603 327.174
C 297.893 328.006 297.915 329.257 298.512 329.899
C 300.252 329.722 302.357 329.571 304.076 329.886
C 304.333 332.636 305.052 335.38 305.32 338.114
C 302.278 338.038 299.204 337.997 296.16 338.052
C 294.613 338.08 292.769 337.973 291.331 338.631
C 287.94 340.183 287.496 345.817 291.084 347.481
C 292.653 348.209 294.83 347.912 296.504 347.904
C 300.281 347.885 304.2 347.585 307.962 347.847
C 308.55 350.648 309.519 353.346 310.552 356.006
C 307.156 356.233 303.646 355.621 300.201 355.93
C 298.439 360.5 297.094 365.056 294.173 369.085
C 287.882 377.763 276.791 382.342 266.279 379.643
C 263.071 378.82 259.963 377.46 257.294 375.48
C 256.007 374.525 253.882 371.801 252.366 371.66
C 251.312 383.495 255.652 397.236 268.104 401.033
C 270.006 401.613 272.065 401.907 274.052 401.905
C 277.353 401.901 280.63 401.261 283.751 400.203
C 292.308 397.302 299.963 391.373 305.864 384.631
C 307.754 382.472 309.118 379.918 310.971 377.743
C 311.464 377.164 312.284 376.933 312.724 376.414
C 312.368 378.309 311.522 380.219 310.833 382.017
C 308.26 388.208 305.808 394.304 300.818 399.006
C 287.121 411.91 262.499 414.657 250.792 397.576
C 241.411 383.888 243.595 366.535 249.475 351.991
C 250.871 353.871 251.714 356.254 252.895 358.285
C 255.172 362.202 257.929 366.071 261.602 368.795
C 268.91 374.215 278.455 373.798 285.253 367.634
C 288.509 364.681 290.766 360.065 291.969 355.898
C 288.288 354.406 285.117 353.95 282.704 350.368
C 277.86 343.179 281.587 332.212 290.311 330.291
C 290.305 328.542 288.588 326.013 287.805 324.466
C 284.814 318.552 280.604 313.449 275.235 309.551
C 262.015 299.953 242.415 300.204 232.327 314.132
C 230.658 316.436 229.335 318.905 228.435 321.61
C 226.771 326.608 226.64 331.717 227.313 336.895
C 227.914 341.52 228.95 347.929 231.764 351.788
C 229.572 351.698 226.525 350.093 224.461 349.297
C 218.548 347.019 212.817 344.48 207.384 341.199
C 191.233 331.448 177.819 316.756 173.753 297.875
C 172.538 292.23 172.161 286.228 172.879 280.487
C 176.238 253.656 200.913 235.204 227.257 235.31
C 237.543 235.351 247.666 237.85 256.97 242.172
C 269.779 248.121 280.962 257.57 290.197 268.183
C 289.632 268.645 287.023 266.85 286.428 266.589
C 282.889 265.037 278.86 264.198 275.042 263.734 Z"
opacity="1" fill="rgb(14,26,69)" fill-rule="evenodd" />
<path d="
M 275.042 263.734
C 265.398 262.311 255.903 263.357 246.872 267.092
C 244.186 268.203 241.95 269.96 239.438 271.284
C 236.22 271.748 232.993 271.433 229.746 272.132
C 228.354 272.431 226.904 272.684 225.566 273.177
C 224.767 273.472 223.703 274.119 222.833 274.07
C 223.28 272.096 224.914 270.324 225.412 268.256
C 226.829 262.366 223.336 258.037 219.944 253.635
C 218.989 252.395 217.966 251.18 217.065 249.902
C 216.696 249.378 216.764 248.725 216.02 248.741
C 212.264 254.72 204.765 259.025 206.418 267.165
C 206.679 268.448 207.105 269.713 207.736 270.862
C 209.19 273.513 211.355 275.498 213.131 277.876
C 203.185 284.194 194.871 293.73 191.691 305.249
C 190.87 308.224 189.281 312.567 190.316 315.598
C 187.299 312.153 185.185 307.426 183.584 303.173
C 181.451 297.509 180.057 291.284 180.283 285.202
C 181.155 261.649 201.825 244.314 224.576 243.192
C 238.386 242.51 251.319 247.328 262.947 254.423
C 265.822 256.178 268.444 258.18 270.971 260.398
C 272.205 261.481 273.495 263.217 275.042 263.734 Z"
opacity="1" fill="rgb(121,143,76)" fill-rule="evenodd" />
<path d="
M 222.615 315.348
C 219.574 323.36 218.417 330.414 219.714 338.939
C 217.493 338.565 215.003 336.563 213.091 335.43
C 207.723 332.25 201.733 328.695 197.596 323.929
C 197.869 323.773 197.531 321.04 197.542 320.486
C 197.607 316.963 198.111 313.602 199.198 310.223
C 202.634 299.542 209.471 290.705 219.162 284.963
C 221.263 283.718 223.388 282.714 225.645 281.788
C 226.657 281.372 228.264 280.641 229.376 280.853
C 228.398 283.301 226.179 285.598 224.965 288.04
C 222.134 293.734 220.942 300.324 221.21 306.648
C 221.304 308.867 221.509 311.133 222.014 313.299
C 222.085 313.606 222.377 315.373 222.615 315.348 Z"
opacity="1" fill="rgb(117,141,75)" fill-rule="evenodd" />
<path d="
M 220.189 510.336
C 228.574 509.713 237.101 510.229 245.509 510.255
C 247.668 510.262 249.835 510.321 251.994 510.225
C 252.705 510.194 253.897 509.931 254.429 510.397
C 254.27 514.49 255.078 518.701 254.74 522.77
C 253.002 523.113 252.614 521.555 252.123 520.241
C 251.295 518.029 250.082 515.649 248.074 514.267
C 246.904 513.46 245.356 513.634 244.001 513.606
C 240.748 513.539 237.486 513.593 234.232 513.642
C 233.612 516.093 233.927 518.877 233.925 521.395
C 233.92 526.718 234.198 532.052 234.084 537.365
C 239.172 537.968 244.473 536.854 249.571 537.253
C 249.565 538.408 249.876 540.224 249.36 541.251
C 245.906 541.266 242.452 541.172 238.997 541.221
C 237.404 541.243 235.609 541.026 234.083 541.506
C 233.804 547.866 233.887 554.384 233.889 560.756
C 233.889 562.386 233.895 564.019 233.931 565.648
C 233.942 566.143 233.84 566.897 234.175 567.27
C 237.45 567.205 240.732 567.304 244.008 567.28
C 245.463 567.269 247.39 567.446 248.627 566.529
C 250.659 565.023 251.86 562.317 252.739 560.031
C 253.254 558.693 253.622 556.881 255.167 556.575
C 255.704 557.533 255.382 558.922 255.302 559.984
C 255.126 562.325 254.973 564.677 254.875 567.023
C 254.84 567.875 255.201 569.889 254.611 570.518
C 248.464 570.969 242.165 570.592 235.997 570.649
C 230.919 570.696 225.575 571.174 220.527 570.622
C 221.084 568.524 223.732 567.597 224.076 565.407
C 224.424 563.183 224.141 560.75 224.143 558.503
C 224.148 554.003 224.128 549.503 224.125 545.003
C 224.12 538.361 224.126 531.718 224.148 525.076
C 224.158 522.225 224.872 518.512 224.007 515.769
C 223.342 513.663 221.218 512.259 220.189 510.336 Z"
opacity="1" fill="rgb(14,24,64)" fill-rule="evenodd" />
<path d="
M 304.076 329.886
C 302.357 329.571 300.252 329.722 298.512 329.899
C 297.915 329.257 297.893 328.006 297.603 327.174
C 297.075 325.655 296.426 324.139 295.748 322.681
C 293.599 318.064 290.863 313.956 287.579 310.077
C 274.428 294.543 247.419 288.941 231.326 303.324
C 231.652 302.681 231.251 301.677 231.242 300.944
C 231.224 299.436 231.639 297.914 232.005 296.463
C 233.445 290.767 236.696 285.446 240.891 281.366
C 251.451 271.097 269.186 268.346 283.202 271.487
C 286.913 272.318 291.82 273.235 294.902 275.602
C 296.65 276.945 297.776 279.155 298.893 281.011
C 301.186 284.821 303.226 288.751 305.114 292.778
C 305.602 293.819 305.021 294.854 304.9 295.916
C 304.619 298.367 304.275 300.799 304 303.253
C 303.294 309.56 303.141 315.909 303.44 322.247
C 303.547 324.528 303.266 327.761 304.076 329.886 Z"
opacity="1" fill="rgb(95,124,68)" fill-rule="evenodd" />
<path d="
M 310.552 356.006
C 311.266 357.357 311.518 358.973 312.124 360.385
C 312.951 362.311 314.55 364.62 314.832 366.693
C 315.241 369.709 313.293 373.465 312.724 376.414
C 312.284 376.933 311.464 377.164 310.971 377.743
C 309.118 379.918 307.754 382.472 305.864 384.631
C 299.963 391.373 292.308 397.302 283.751 400.203
C 280.63 401.261 277.353 401.901 274.052 401.905
C 272.065 401.907 270.006 401.613 268.104 401.033
C 255.652 397.236 251.312 383.495 252.366 371.66
C 253.882 371.801 256.007 374.525 257.294 375.48
C 259.963 377.46 263.071 378.82 266.279 379.643
C 276.791 382.342 287.882 377.763 294.173 369.085
C 297.094 365.056 298.439 360.5 300.201 355.93
C 303.646 355.621 307.156 356.233 310.552 356.006 Z"
opacity="1" fill="rgb(120,144,78)" fill-rule="evenodd" />
<path d="
M 262.157 510.316
C 268.246 510.422 274.365 510.066 280.46 510.349
C 283.811 510.504 287.07 510.545 290.286 511.648
C 297.701 514.189 302.257 522.096 299.98 529.787
C 298.88 533.502 296.427 536.829 293.084 538.795
C 291.923 539.477 287.894 540.231 287.84 541.499
C 298.514 545.754 297.639 558.957 304.375 566.584
C 305.378 567.719 306.637 568.337 307.883 569.146
C 308.801 570.773 304.325 571.257 303.424 571.294
C 299.821 571.445 295.974 570.44 293.631 567.514
C 289.768 562.689 288.705 555.903 286.078 550.402
C 283.929 545.9 281.52 542.883 276.276 542.66
C 275.797 547.353 276.258 552.28 276.216 557.002
C 276.192 559.735 275.684 563.081 276.479 565.722
C 277.101 567.788 279.491 568.599 280.368 570.458
C 280.076 570.977 276.662 570.643 276.003 570.642
C 271.385 570.63 266.673 570.888 262.068 570.623
C 262.585 568.453 265.165 567.524 265.691 565.396
C 266.152 563.537 265.851 561.356 265.849 559.455
C 265.845 555.804 265.852 552.153 265.85 548.502
C 265.845 538.157 266.635 527.576 265.983 517.258
C 265.876 515.569 265.287 514.537 264.174 513.297
C 263.456 512.496 262.137 511.4 262.157 510.316 Z
M 276.04 539.141
C 276.033 539.317 276.026 539.493 276.02 539.668
C 277.125 540.104 279.156 539.657 280.328 539.511
C 290.387 538.261 292.731 523.78 286.981 516.848
C 284.939 514.386 282.165 513.617 279.111 513.4
C 278.432 513.352 276.672 513.06 276.201 513.61
C 275.579 522.027 277.146 530.784 276.04 539.141 Z"
opacity="1" fill="rgb(16,25,65)" fill-rule="evenodd" />
<path d="
M 324.478 383.846
C 321.964 390.541 318.956 397.327 315.457 403.591
C 313.811 406.539 310.915 409.459 309.758 412.578
C 311.172 415.936 314.799 419.122 316.979 422.072
C 322.699 429.813 328.798 437.348 334.065 445.408
C 334.719 445.544 335.249 444.175 335.535 443.693
C 336.622 441.862 337.805 440.093 338.944 438.295
C 343.892 430.488 350.15 423.572 355.283 415.897
C 356.243 415.167 356.94 413.82 357.673 412.864
C 357.965 412.484 358.681 411.923 358.487 411.462
C 349.698 399.376 341.246 387.409 334.82 373.831
C 321.258 345.175 317.808 311.333 329.945 281.551
C 340.122 256.582 360.062 236.149 366.448 209.582
C 371.989 186.525 366.336 162.791 353.341 143.205
C 349.311 137.132 345.043 131.26 340.548 125.521
C 338.787 123.272 337 121.024 335.284 118.745
C 334.658 117.914 333.636 116.833 333.323 118.424
C 333.136 118.828 332.336 119.085 331.977 119.504
C 330.699 120.994 329.484 122.57 328.266 124.111
C 324.693 128.634 321.319 133.321 317.948 137.994
C 303.756 157.665 290.61 179.5 287.384 203.936
C 287.089 205.439 286.881 207.063 286.941 208.599
C 286.958 209.057 286.896 210.056 287.333 210.257
C 286.373 214.722 287.298 219.989 287.945 224.455
C 289.829 237.454 294.747 250.007 300.935 261.537
C 302.956 265.301 305.264 268.909 307.294 272.666
C 307.669 273.36 308.734 276.416 309.814 275.947
C 309.38 278.299 308.236 280.542 307.591 282.846
C 307.178 284.322 307.092 286.206 306.482 287.568
C 305.02 285.857 304.191 283.609 303.099 281.652
C 300.613 277.199 298.127 272.743 295.64 268.289
C 289.901 258.012 285.221 247.339 282.235 235.927
C 280.558 229.518 279.655 222.851 279.334 216.242
C 277.89 186.539 293.325 159.748 309.725 136.226
C 315.083 128.541 320.732 121.077 326.763 113.917
C 329.093 111.151 331.26 108.047 333.978 105.646
C 335.217 106.333 336.116 107.764 337.04 108.825
C 338.799 110.843 340.523 112.897 342.223 114.965
C 349.057 123.276 355.445 131.989 361.451 140.917
C 374.197 159.863 385.819 180.715 388.117 203.828
C 389.101 213.736 388.136 223.699 386.077 233.402
C 383.542 245.348 378.605 257.063 372.768 267.748
C 366.13 279.897 357.307 290.709 351.746 303.458
C 339.831 330.776 340.748 363.54 353.652 390.369
C 357.522 398.417 362.81 405.266 368.469 412.079
C 368.083 413.155 366.889 413.983 366.177 414.867
C 364.304 417.191 362.405 419.496 360.601 421.875
C 354.528 429.882 348.724 438.071 342.986 446.321
C 340.885 449.343 338.916 452.478 336.743 455.448
C 335.998 456.465 335.249 458.232 334.194 458.902
C 331.382 455.994 329.269 451.957 326.935 448.649
C 323.113 443.23 319.185 437.889 315.228 432.57
C 312.087 428.348 308.807 424.237 305.586 420.079
C 303.768 417.733 301.394 415.552 300.045 412.893
C 300.664 411.1 302.256 409.522 303.362 407.993
C 305.7 404.763 307.893 401.429 309.816 397.934
C 312.309 393.403 314.643 388.747 316.299 383.838
C 317.389 380.604 317.975 377.253 318.98 374.002
C 320.709 375.814 321.855 378.931 323.161 381.112
C 323.654 381.934 324.428 382.863 324.478 383.846 Z"
opacity="1" fill="rgb(16,28,73)" fill-rule="evenodd" />
<path d="
M 287.333 210.257
C 294.872 210.057 301.942 211.446 308.48 215.374
C 319.721 222.128 324.973 236.206 322.059 248.837
C 321.33 251.997 318.951 255.009 317.48 257.876
C 314.54 263.606 311.51 269.71 309.814 275.947
C 308.734 276.416 307.669 273.36 307.294 272.666
C 305.264 268.909 302.956 265.301 300.935 261.537
C 294.747 250.007 289.829 237.454 287.945 224.455
C 287.298 219.989 286.373 214.722 287.333 210.257 Z"
opacity="1" fill="rgb(35,74,52)" fill-rule="evenodd" />
<path d="
M 333.323 118.424
C 334.469 119.904 335.129 122.094 335.994 123.779
C 338.124 127.923 340.132 132.173 341.959 136.458
C 348.698 152.26 354.439 169.522 352.561 186.953
C 351.848 193.566 349.537 199.425 347.865 205.762
C 343.909 202.844 339.289 201.281 334.594 200.022
C 334.947 198.754 336.361 197.761 337.095 196.682
C 338.316 194.885 339.278 192.87 339.792 190.756
C 341.604 183.305 336.684 177.422 332.259 172.051
C 331.303 170.89 330.24 169.774 329.37 168.549
C 328.997 168.024 328.532 167.157 327.925 166.962
C 322.813 174.709 313.08 180.727 316.13 191.447
C 316.751 193.629 317.886 195.622 319.168 197.478
C 319.684 198.225 321.178 199.459 321.39 200.26
C 317.449 200.724 313.546 201.959 309.99 203.721
C 308.759 204.331 307.749 205.334 306.521 205.905
C 304.507 205.683 302.366 204.576 300.326 204.154
C 296.247 203.311 291.476 203.319 287.384 203.936
C 290.61 179.5 303.756 157.665 317.948 137.994
C 321.319 133.321 324.693 128.634 328.266 124.111
C 329.484 122.57 330.699 120.994 331.977 119.504
C 332.336 119.085 333.136 118.828 333.323 118.424 Z"
opacity="1" fill="rgb(34,75,54)" fill-rule="evenodd" />
<path d="
M 324.478 383.846
C 326.433 385.323 327.71 388.45 329.182 390.43
C 331.852 394.023 334.905 397.361 337.909 400.679
C 341.18 404.289 345.005 407.667 348.816 410.7
C 350.792 412.273 353.739 413.923 355.283 415.897
C 350.15 423.572 343.892 430.488 338.944 438.295
C 337.805 440.093 336.622 441.862 335.535 443.693
C 335.249 444.175 334.719 445.544 334.065 445.408
C 328.798 437.348 322.699 429.813 316.979 422.072
C 314.799 419.122 311.172 415.936 309.758 412.578
C 310.915 409.459 313.811 406.539 315.457 403.591
C 318.956 397.327 321.964 390.541 324.478 383.846 Z"
opacity="1" fill="rgb(30,72,53)" fill-rule="evenodd" />
<path d="
M 316.176 209.923
C 324.301 204.995 337.76 205.993 344.462 213.099
C 344.305 214.767 342.887 216.54 342.063 217.957
C 340.286 221.014 338.642 224.153 336.771 227.156
C 336.378 227.788 334.803 231.137 334.103 230.958
C 331.458 224.997 328.171 219.75 323.237 215.398
C 321.605 213.959 319.808 212.597 317.965 211.44
C 317.247 210.99 316.247 210.79 316.176 209.923 Z"
opacity="1" fill="rgb(33,71,52)" fill-rule="evenodd" />
<path d="
M 334.464 536.099
C 336.255 524.644 342.65 513.205 354.669 510.174
C 357.29 509.513 359.983 509.331 362.677 509.445
C 365.678 509.572 368.516 510.469 371.22 511.736
C 372.406 512.291 373.977 513.618 375.286 513.753
C 376.103 512.905 377.893 509.785 379.328 510.562
C 379.715 516.761 379.875 523.565 379.306 529.747
C 378.747 529.798 378.199 529.717 377.645 529.77
C 376.8 528.71 376.504 526.482 376.027 525.172
C 374.799 521.803 373.228 518.273 370.468 515.866
C 366.072 512.031 359.389 511.205 354.485 514.59
C 351.781 516.458 349.85 519.291 348.464 522.222
C 343.244 533.257 343.725 549.331 349.477 560.051
C 351.082 563.044 353.244 565.713 356.281 567.333
C 362.069 570.42 368.937 567.57 372.713 562.729
C 375.294 559.42 375.991 555.339 377.328 551.481
C 378.094 551.503 378.757 551.502 379.471 551.795
C 379.881 557.703 380.323 564.475 379.464 570.337
C 377.462 570.421 376.203 568.255 374.936 566.989
C 373.525 566.721 370.698 569.036 369.375 569.644
C 366.097 571.152 362.652 571.867 359.044 571.67
C 356.515 571.532 353.983 570.844 351.646 569.888
C 338.241 564.406 332.894 549.71 334.464 536.099 Z"
opacity="1" fill="rgb(16,24,64)" fill-rule="evenodd" />
<path d="
M 354.209 330.417
C 355.139 329.668 356.688 329.862 357.882 329.877
C 360.69 329.911 363.503 329.784 366.312 329.799
C 367.195 329.804 368.972 330.202 369.745 329.818
C 374.16 311.643 391.316 296.321 410.064 294.936
C 419.264 294.257 428.997 297.138 436.161 302.999
C 446.58 311.521 451.179 326.069 448.319 339.121
C 448.401 339.414 450.157 338.149 450.491 337.926
C 451.973 336.936 453.597 336.152 455.101 335.189
C 460.091 331.994 465.065 328.817 469.477 324.825
C 471.207 323.259 472.612 321.445 474.228 319.785
C 475.286 318.887 475.893 317.49 476.729 316.388
C 477.914 314.83 479.568 313.253 480.252 311.399
C 482.894 307.195 485.082 302.271 486.109 297.389
C 487.528 290.645 487.688 283.557 486.111 276.823
C 481.896 258.83 465.621 245.73 447.576 243.383
C 424.899 240.434 403.516 253.03 388.364 268.71
C 384.642 269.945 380.861 271.288 377.406 273.163
C 376.027 273.911 374.768 274.788 373.51 275.717
C 373.175 275.965 372.344 276.842 372.09 276.161
C 373.329 273.354 375.869 270.788 377.769 268.392
C 383.537 261.118 390.595 254.602 398.286 249.401
C 407.761 242.994 418.932 237.821 430.316 236.098
C 439.098 234.768 447.95 234.985 456.555 237.33
C 463.107 239.116 469.318 242.123 474.717 246.249
C 479.43 249.85 483.263 254.05 486.692 258.872
C 489.379 262.652 491.365 267.055 492.756 271.463
C 498.152 288.559 493.57 306.965 483.233 321.245
C 477.288 329.457 469.225 335.987 460.64 341.235
C 454.906 344.74 448.836 347.567 442.487 349.758
C 440.648 350.392 438.594 351.581 436.642 351.68
C 439.081 346.789 440.4 340.688 441.01 335.289
C 441.606 330.011 441.054 324.534 438.995 319.604
C 434.289 308.332 422.544 301.725 410.462 302.85
C 395.818 304.214 381.864 315.892 377.986 330.17
C 380.384 331.436 382.913 332.356 384.613 334.6
C 388.706 340.001 388.733 348.088 383.444 352.767
C 381.534 354.457 379.123 355.149 376.707 355.75
C 377.295 358.576 378.508 361.122 380.007 363.575
C 381.177 365.489 382.701 367.231 384.445 368.637
C 385.954 369.853 387.687 370.778 389.476 371.511
C 400.759 376.133 410.32 367.066 415.548 358.014
C 416.661 356.087 417.978 353.967 418.576 351.814
C 419.35 351.68 419.504 353.001 419.718 353.611
C 420.457 355.714 421.185 357.893 421.734 360.053
C 424.028 369.08 424.877 378.642 421.929 387.656
C 420.331 392.541 418.258 397.262 414.687 401.066
C 403.832 412.627 385.455 411.821 373.127 403.161
C 364.087 396.81 358.868 387.352 356.237 376.771
C 358.361 377.641 359.928 381.601 361.412 383.4
C 365.015 387.764 369.356 391.923 374.118 395
C 380.897 399.382 388.735 402.618 396.947 401.563
C 408.106 400.13 413.818 390.828 415.375 380.485
C 415.789 377.734 416.16 374.36 415.628 371.613
C 414.113 372.173 412.591 374.356 411.23 375.365
C 408.426 377.444 405.247 378.939 401.845 379.732
C 389.312 382.651 377.757 376.124 371.721 365.236
C 370.303 362.679 368.246 358.839 368.189 355.859
C 365.172 355.599 362.038 355.794 359.008 355.789
C 357.05 355.786 354.951 355.531 353.021 355.875
C 352.081 355.706 352.338 354.761 352.345 353.936
C 352.361 351.961 352.415 349.955 352.297 347.985
C 358.083 347.337 364.186 347.87 370.005 347.911
C 372.515 347.929 376.021 348.434 378.088 346.673
C 380.835 344.333 379.294 339.394 376.035 338.417
C 373.413 337.631 370.45 337.938 367.753 337.934
C 362.876 337.928 358.007 338.04 353.14 338.13
C 353.238 335.549 353.733 332.952 354.209 330.417 Z"
opacity="1" fill="rgb(17,26,71)" fill-rule="evenodd" />
<path d="
M 353.021 355.875
C 354.951 355.531 357.05 355.786 359.008 355.789
C 362.038 355.794 365.172 355.599 368.189 355.859
C 368.246 358.839 370.303 362.679 371.721 365.236
C 377.757 376.124 389.312 382.651 401.845 379.732
C 405.247 378.939 408.426 377.444 411.23 375.365
C 412.591 374.356 414.113 372.173 415.628 371.613
C 416.16 374.36 415.789 377.734 415.375 380.485
C 413.818 390.828 408.106 400.13 396.947 401.563
C 388.735 402.618 380.897 399.382 374.118 395
C 369.356 391.923 365.015 387.764 361.412 383.4
C 359.928 381.601 358.361 377.641 356.237 376.771
C 356.15 375.346 355.221 373.753 354.883 372.325
C 354.015 368.646 353.273 364.906 352.905 361.14
C 352.777 359.825 351.91 356.704 353.021 355.875 Z"
opacity="1" fill="rgb(202,89,41)" fill-rule="evenodd" />
<path d="
M 474.228 319.785
C 472.612 321.445 471.207 323.259 469.477 324.825
C 465.065 328.817 460.091 331.994 455.101 335.189
C 453.597 336.152 451.973 336.936 450.491 337.926
C 450.157 338.149 448.401 339.414 448.319 339.121
C 451.179 326.069 446.58 311.521 436.161 302.999
C 428.997 297.138 419.264 294.257 410.064 294.936
C 391.316 296.321 374.16 311.643 369.745 329.818
C 368.972 330.202 367.195 329.804 366.312 329.799
C 363.503 329.784 360.69 329.911 357.882 329.877
C 356.688 329.862 355.139 329.668 354.209 330.417
C 354.267 328.78 355.01 326.919 355.446 325.324
C 356.472 321.565 357.516 317.834 358.998 314.221
C 363.716 302.721 372.08 291.59 382.923 285.188
C 401.388 274.286 425.395 273.553 444.564 283.13
C 455.52 288.604 466.183 297.967 470.983 309.474
C 472 311.912 472.926 314.291 473.72 316.815
C 473.959 317.571 474.694 319.065 474.228 319.785 Z"
opacity="1" fill="rgb(203,88,39)" fill-rule="evenodd" />
<path d="
M 384.831 570.086
C 386.026 568.475 388.215 568.019 389.276 566.237
C 391.274 562.883 391.989 558.574 393.167 554.883
C 395.443 547.751 397.872 540.644 399.882 533.43
C 400.881 529.845 403.488 525.314 403.244 521.558
C 403.138 519.924 402.078 518.251 401.384 516.806
C 403.015 515.944 404.729 515.141 406.103 513.884
C 407.433 512.667 408.262 511.061 409.545 509.801
C 410.216 509.689 410.267 510.494 410.39 511.046
C 410.695 512.418 411.275 513.778 411.694 515.128
C 413.574 521.173 415.761 527.119 417.641 533.164
C 419.469 539.041 421.475 544.859 423.319 550.731
C 424.58 554.746 425.545 558.976 427.108 562.882
C 427.778 564.558 428.428 566.237 429.794 567.471
C 430.661 568.255 432.593 569.116 432.813 570.366
C 429.809 570.905 426.545 570.622 423.503 570.622
C 420.287 570.621 416.92 570.918 413.736 570.585
C 414.478 568.976 416.626 567.707 416.939 565.937
C 417.139 564.805 416.446 563.294 416.134 562.218
C 415.407 559.704 414.766 557.172 414.065 554.654
C 408.207 554.265 402.271 554.915 396.404 554.739
C 395.58 557.318 394.731 559.901 393.971 562.501
C 393.56 563.905 393.017 565.592 393.469 567.032
C 394.237 568.027 396.778 569.171 396.881 570.476
C 396.678 570.949 394.521 570.632 394.001 570.632
C 390.99 570.627 387.923 570.879 384.927 570.639
C 384.895 570.455 384.863 570.27 384.831 570.086 Z
M 397.459 551.131
C 397.402 551.323 397.346 551.514 397.289 551.706
C 402.517 551.375 407.792 551.607 413.028 551.355
C 413.064 550.033 411.782 548.017 411.35 546.732
C 410.088 542.977 409.029 539.152 407.806 535.385
C 407.083 533.159 406.189 530.886 405.806 528.572
C 405.729 528.108 405.596 526.46 405.004 527.057
C 403.971 531.11 402.588 535.074 401.378 539.08
C 400.176 543.058 399.216 547.356 397.459 551.131 Z"
opacity="1" fill="rgb(14,24,66)" fill-rule="evenodd" />
<path d="
M 480.252 311.399
C 480.174 311.031 479.194 309.788 478.952 309.264
C 477.787 306.747 476.75 304.208 475.395 301.78
C 471.154 294.178 465.343 287.666 458.75 282.04
C 455.392 279.174 451.734 276.33 447.693 274.496
C 447.904 273.662 449.246 272.741 449.859 272.112
C 451.14 270.799 452.244 269.095 452.925 267.391
C 455.228 261.628 453.243 256.469 449.454 251.855
C 447.738 249.765 445.392 247.859 443.985 245.567
C 442.743 246.622 441.801 248.139 440.761 249.4
C 437.874 252.903 434.245 257.217 434.359 262.025
C 434.431 265.077 435.863 267.436 437.381 269.953
C 437.283 270.249 436.509 269.727 436.253 269.606
C 434.923 268.981 433.542 268.518 432.129 268.122
C 428.266 267.041 424.366 266.264 420.399 265.668
C 412.582 264.493 404.31 264.882 396.579 266.417
C 393.755 266.977 391.131 268.016 388.364 268.71
C 403.516 253.03 424.899 240.434 447.576 243.383
C 465.621 245.73 481.896 258.83 486.111 276.823
C 487.688 283.557 487.528 290.645 486.109 297.389
C 485.082 302.271 482.894 307.195 480.252 311.399 Z"
opacity="1" fill="rgb(204,91,41)" fill-rule="evenodd" />
<path d="
M 395.5 505.622
C 395.965 504.172 397.165 503.149 398.172 502.047
C 400.231 499.792 402.281 497.528 404.378 495.307
C 405.328 494.301 406.548 492.647 407.959 492.33
C 409.948 493.708 411.645 495.698 413.292 497.46
C 415.744 500.082 418.334 502.612 420.64 505.365
C 420.862 505.892 420.73 506.183 420.494 506.688
C 419.463 507.168 418.063 506.148 417.14 505.72
C 413.795 504.169 410.829 501.886 407.985 499.568
C 403.992 501.545 400.411 506.068 395.706 506.525
C 395.416 506.027 395.514 506.32 395.5 505.622 Z"
opacity="1" fill="rgb(10,14,56)" fill-rule="evenodd" />
<path d="
M 436.114 510.277
C 440.674 509.891 445.652 509.786 450.22 510.13
C 450.846 512.807 452.14 515.444 453.029 518.055
C 455.58 525.544 458.414 532.942 461.089 540.391
C 462.282 543.715 463.416 547.054 464.54 550.404
C 464.986 551.732 465.334 553.874 466.056 554.995
C 466.995 553.972 467.145 552.36 467.601 551.087
C 468.758 547.86 469.963 544.656 471.081 541.415
C 473.275 535.053 475.655 528.742 477.72 522.336
C 479.02 518.305 480.039 513.991 481.817 510.148
C 485.986 509.931 491.074 509.438 495.171 510.221
C 495.134 511.274 494.235 511.757 493.522 512.418
C 492.309 513.545 491.079 514.796 490.858 516.514
C 490.13 522.185 490.745 528.288 490.74 534.003
C 490.73 543.822 490.497 553.673 490.733 563.488
C 490.776 565.294 491.45 566.524 492.727 567.775
C 493.481 568.514 495.048 569.26 495.06 570.417
C 490.746 570.824 486.281 570.659 481.936 570.654
C 480.437 570.653 478.257 571.108 476.887 570.481
C 477.241 568.287 480.027 567.564 480.519 565.356
C 481.134 562.594 480.713 559.321 480.72 556.502
C 480.734 550.836 480.735 545.171 480.803 539.506
C 480.848 535.808 480.767 532.101 480.878 528.404
C 480.918 527.054 481.093 525.716 481.136 524.369
C 481.145 524.11 481.196 522.771 480.753 523.299
C 479.491 526.371 478.648 529.646 477.503 532.769
C 474.86 539.978 472.096 547.184 469.685 554.474
C 467.957 559.698 466.453 565.16 464.192 570.186
C 463.446 570.637 462.115 570.336 461.29 570.184
C 457.165 559.674 453.685 548.911 449.613 538.381
C 448.268 534.901 447.294 531.236 445.882 527.795
C 445.386 526.585 445.156 525.293 444.729 524.059
C 444.601 523.686 444.597 522.681 444.08 523.132
C 443.678 530.512 444.285 538.083 444.24 545.491
C 444.201 551.857 443.517 558.747 444.358 565.06
C 444.689 567.539 448.163 568.246 448.395 570.426
C 448.204 570.956 446.015 570.614 445.496 570.612
C 442.586 570.597 439.641 570.491 436.739 570.637
C 436.435 569.475 439.418 567.658 440.142 566.78
C 441.147 565.559 440.896 563.791 440.895 562.307
C 440.891 551.375 441.059 540.442 440.941 529.511
C 440.908 526.429 440.974 523.348 440.964 520.266
C 440.959 518.825 441.2 517.041 440.717 515.657
C 439.929 513.402 437.135 512.438 436.114 510.277 Z"
opacity="1" fill="rgb(15,24,64)" fill-rule="evenodd" />
<path d="
M 500.889 569.402
C 502.135 568.453 503.538 567.672 504.501 566.408
C 507.231 562.822 508.201 556.861 509.513 552.592
C 511.743 545.338 514.122 538.139 516.233 530.847
C 516.998 528.204 518.081 525.626 518.61 522.92
C 518.854 521.671 518.778 520.732 518.234 519.579
C 517.851 518.767 516.983 517.774 517.26 516.935
C 518.513 516.105 519.87 515.481 520.994 514.462
C 522.568 513.036 523.608 511.268 524.976 509.675
C 525.989 509.824 526.375 512.287 526.685 513.213
C 527.845 516.692 529.024 520.167 530.126 523.665
C 534.165 536.482 538.638 549.184 542.423 562.082
C 542.981 563.984 543.6 566.018 545.091 567.407
C 545.846 568.111 548.38 569.348 548.382 570.389
C 542.367 571.144 535.621 570.857 529.568 570.619
C 530.1 568.714 532.207 567.778 532.782 565.928
C 532.83 564.541 532.139 563.015 531.776 561.687
C 531.163 559.449 530.755 556.643 529.685 554.589
C 525.297 554.708 520.894 554.572 516.503 554.613
C 515.3 554.624 512.9 554.129 511.953 554.865
C 510.976 557.028 510.634 559.517 509.864 561.765
C 509.358 563.243 508.57 564.877 508.913 566.478
C 509.236 567.989 511.993 569.08 511.965 570.475
C 511.426 570.952 509.707 570.598 508.996 570.6
C 506.559 570.61 502.713 571.319 500.54 570.171
C 500.657 569.915 500.773 569.658 500.889 569.402 Z
M 512.931 551.148
C 512.873 551.319 512.815 551.491 512.757 551.662
C 516.783 551.316 520.955 551.549 524.996 551.596
C 525.512 551.602 528.832 551.763 528.869 551.562
C 527.454 549.199 526.84 546.308 526.087 543.685
C 524.475 538.071 523 532.04 520.832 526.643
C 518.165 534.634 516.663 543.557 512.931 551.148 Z"
opacity="1" fill="rgb(15,24,65)" fill-rule="evenodd" />
<path d="
M 551.636 510.299
C 557.551 509.964 563.593 510.063 569.519 510.264
C 573.764 510.408 578.056 510.5 581.937 512.462
C 590.614 516.846 593.509 528.063 586.879 535.66
C 584.164 538.77 580.874 539.367 577.367 541.041
C 577.753 541.796 579.608 542.149 580.338 542.694
C 582.038 543.964 583.577 545.441 584.794 547.191
C 588.706 552.817 589.45 560.204 593.266 565.848
C 594.588 567.803 596.823 567.772 598.261 569.348
C 598.09 570.881 596.072 571.139 594.8 571.229
C 591.48 571.464 587.567 571.198 584.811 569.108
C 582.364 567.254 581.201 563.904 580.147 561.141
C 577.983 555.466 576.163 546.645 570.359 543.516
C 569.122 542.849 567.613 542.852 566.252 542.659
C 565.683 544.898 565.998 547.447 566.047 549.742
C 566.116 552.962 565.949 556.158 565.949 559.374
C 565.95 561.385 565.593 564.181 566.332 566.078
C 566.984 567.754 569.634 568.734 569.996 570.446
C 569.077 571.042 566.065 570.577 564.956 570.564
C 560.612 570.513 556.01 570.18 551.706 570.614
C 551.974 568.428 555.246 567.639 555.656 565.408
C 556.346 561.646 555.809 557.323 555.805 553.506
C 555.796 546.007 555.793 538.507 555.799 531.007
C 555.801 527.507 555.791 524.007 555.823 520.507
C 555.837 519 556.174 517.073 555.704 515.622
C 555.01 513.479 552.592 512.315 551.636 510.299 Z
M 566.021 519.626
C 565.731 526.271 565.814 533.231 566.095 539.873
C 569.84 539.443 573.611 539.423 576.484 536.562
C 581.627 531.441 581.41 519.69 575.453 515.283
C 572.802 513.323 569.438 513.348 566.278 513.294
C 566.08 515.372 566.378 517.58 566.021 519.626 Z"
opacity="1" fill="rgb(15,25,65)" fill-rule="evenodd" />
<path d="
M 601.02 569.559
C 602.207 568.607 603.612 567.849 604.543 566.62
C 607.017 563.354 607.733 558.327 608.895 554.471
C 611.146 547.001 613.481 539.556 615.768 532.099
C 616.733 528.953 618.98 524.895 618.711 521.551
C 618.593 520.078 617.543 518.554 616.828 517.308
C 618.706 516.001 620.662 514.997 622.179 513.227
C 623.221 512.011 623.795 510.461 624.932 509.331
C 626.013 509.52 626.27 511.939 626.565 512.903
C 627.609 516.312 628.842 519.673 629.96 523.06
C 634.036 535.408 637.889 547.833 641.852 560.215
C 642.677 562.796 643.484 565.655 645.512 567.58
C 646.164 568.199 648.516 569.591 648.282 570.649
C 642.113 570.902 635.785 570.746 629.608 570.635
C 629.946 568.673 632.55 567.413 632.61 565.456
C 632.643 564.368 631.898 563.043 631.602 562.003
C 630.901 559.548 630.244 557.084 629.625 554.608
C 627.711 554.175 625.471 554.478 623.515 554.485
C 619.79 554.499 616.057 554.408 612.336 554.565
C 611.477 555.395 611.43 556.69 611.096 557.794
C 610.29 560.465 608.382 564.015 609.042 566.822
C 609.796 567.84 612.326 569.122 612.408 570.456
C 612.292 570.704 610.281 570.483 609.863 570.521
C 606.918 570.791 603.852 570.623 600.898 570.641
C 600.523 570.004 600.573 570.364 601.02 569.559 Z
M 612.877 551.218
C 612.868 551.345 612.859 551.472 612.85 551.599
C 616.884 551.719 620.956 551.5 625.005 551.452
C 625.912 551.441 626.952 551.265 627.843 551.445
C 628.017 551.48 628.768 551.765 628.83 551.51
C 627.75 549.77 627.222 547.578 626.583 545.646
C 625.184 541.417 624.02 537.102 622.517 532.91
C 621.867 531.098 621.68 528.492 620.309 527.099
C 619.884 530.495 618.438 533.848 617.417 537.117
C 615.957 541.787 614.903 546.751 612.877 551.218 Z"
opacity="1" fill="rgb(15,25,65)" fill-rule="evenodd" />

</svg>